<?xml version="1.0" encoding="utf-8"?>
<svg version="1.1" id="Ebene_1" xmlns="http://www.w3.org/2000/svg" xmlns:xlink="http://www.w3.org/1999/xlink" x="0px" y="0px"
	 viewBox="0 0 85.2 85.8" style="enable-background:new 0 0 85.2 85.8;" xml:space="preserve">
<style type="text/css">
	.st0{fill:#FFFFFF;}
</style>
<g id="Ebene_2_1_">
	<g id="Ebene_1-2">
		<path class="st0" d="M34,1.7c-1.5,0.3-3,0.7-4.7,1.2l0,0l-0.8,0.3c-3.6,1.3-18.3,7.5-24.6,23l0,0c0,0-0.2,0.5-0.5,1.3
			c-1,2.5-2.8,8.1-2.8,12.8c0,0.9,0.1,1.7,0.2,2.6L0.5,43l0.2-0.2l0.5,0.4h0.8l1.3,1.3l-2.2,1.7L0.8,46H1c0,0,0,0.2,0,0.7
			c0.9,10.2,5.3,19.7,12.4,27l-0.2,0.2l0.2-0.2c0,0,0.2,0.2,0.5,0.5c2.4,2.2,12.9,10.8,26.6,11.1l0,0H41c0.3,0,0.8,0,1.4,0
			c5.3,0,20.6-1.2,31.3-14.3l0,0l0.4-0.5c1.9-2.2,9.4-11.9,10-24.3h0.2l-0.2,0.2L83.3,45l-1.2-1l1-1h1.3v0.2l-0.2-0.1l0,0
			c0.3-0.8,0.4-1.6,0.4-2.5h0.2h-0.2c0,0,0-0.3-0.1-0.8c-0.3-3.4-2.4-17.9-12.6-27.4l0,0l-0.3-0.4C65.9,6.9,58.8,3.3,51.1,1.7
			l0.1-0.5c13.7,2.9,21.1,11.1,21.1,11.1l-0.2,0.2l0.2-0.2c11.8,11.1,12.8,28.5,12.8,28.5l0,0c0,0.9-0.2,1.8-0.5,2.7l-0.1,0.1h-1.3
			l-0.4,0.4l0.8,0.7l1,1.4v0.1C84,60.7,74.2,71.3,74.2,71.3L74,71.2l0.2,0.2C63.4,84.6,47.9,85.8,42.5,85.8c-1.2,0-2-0.1-2-0.1v-0.2
			v0.2c-15.8-0.4-27.4-11.7-27.4-11.7l0,0C5.7,66.5,1.2,56.5,0.5,46v-0.1l1.9-1.5l-0.7-0.8H1l-0.6-0.5l-0.1-0.1V43
			C0.1,42.1,0,41.2,0,40.3C0,33.9,3.4,26,3.4,26l0.2,0.1L3.4,26C10.8,8,29.1,2.4,29.1,2.4l0,0c1.7-0.5,3.3-0.9,4.7-1.2L34,1.7z"/>
		<path class="st0" d="M38.6,17v0.1l-0.2,0c-1.1,0.2-5.4,1.5-6.1,7.9l0,0c0,0,0,0.2-0.1,0.6c-0.1,0.5-0.1,1-0.1,1.5
			c0,2.5,0.6,6.6,4.2,9.1l-0.1,0.1v-0.1c0,0,0.2,0.1,0.5,0.2c1.8,0.7,3.8,1.1,5.7,1.1c2.2,0,4.4-0.5,6.3-1.5l0.1,0.1l-0.1-0.1L49,36
			c0.8-0.5,3.9-3,3.9-8.5V27l0,0c0,0,0-0.2,0-0.6c0-1.6-0.3-3.2-1-4.7c-1-2.3-3-3.9-5.4-4.5l0,0l-0.3-0.1c-1.2-0.3-2.4-0.4-3.5-0.4
			c-1.4,0-2.7,0.2-4.1,0.5l0,0L38.6,17L38.6,17c1.3-0.4,2.7-0.5,4.1-0.6c1.3,0,2.6,0.1,3.9,0.5V17v-0.1c2.5,0.6,4.5,2.3,5.6,4.7
			c0.7,1.5,1,3.1,1,4.8c0,0.2,0,0.4,0,0.6L53,27h0.1v0.5c0,6.4-4.2,8.8-4.2,8.8l0,0c-2,1-4.2,1.6-6.5,1.5c-2.2,0-4.3-0.4-6.3-1.3
			l0,0c-3.7-2.5-4.3-6.7-4.3-9.3c0-0.7,0-1.4,0.2-2.2h0.1h-0.1c0.4-3.7,2-5.8,3.5-6.9C36.5,17.6,37.5,17.1,38.6,17L38.6,17l0-0.1
			L38.6,17z M36.6,79.3v0.1c0,0.1,0,0.2,0,0.3c0,0.3,0,0.7,0.2,1c0.2,0.3,0.5,0.6,0.9,0.6l0,0c0,0,0.6,0.1,1.6,0.2
			c1.2,0.2,2.4,0.2,3.7,0.2c1.7,0,3.3-0.2,4.9-0.7H48c0,0,0.2,0,0.3-0.2c0.2-0.5,0.3-1.1,0.3-1.6h0.2c0,0.6-0.1,1.2-0.3,1.7
			c-0.1,0.2-0.3,0.4-0.5,0.4h-0.1v-0.1l0,0.1c-1.6,0.5-3.3,0.8-5,0.7c-1.8,0-3.5-0.2-5.3-0.5v-0.1v0.1c-0.5,0-0.9-0.3-1.1-0.7
			c-0.2-0.5-0.3-1.1-0.2-1.6L36.6,79.3z M28.3,9.1v0.1c0,0-0.2,0-0.6,0.1c-2.8,0.7-14.2,4.5-18.3,17.5l0,0c0,0-0.2,0.4-0.4,1.1
			c-1.5,4.8-2.2,9.8-2.1,14.8c0,5.4,0.7,10.8,2.1,16l0,0c0,0,0.1,0.3,0.2,0.8c1.1,3.4,6.6,17.2,26.3,19.3l0,0c0,0,0.7,0.1,1.9,0.2
			s2.9,0.2,5,0.2c6.7,0,16.8-1,23.6-6.3l0,0c0,0,0.2-0.1,0.5-0.4c2.3-1.7,11.7-9.7,11.7-26.9v-0.2c0-1.9-0.2-18.4-5.9-25.5l0,0
			c-0.1-0.2-0.2-0.4-0.3-0.5c-1.5-2.4-9-12-28.8-12.2l0,0c0,0-0.5,0-1.2,0c-2.6,0-8.8,0.2-13.5,2l0,0L28.3,9.1L28.3,9.1
			C33,7.2,39.2,7,41.9,7c0.8,0,1.3,0,1.3,0v0c22.8,0.2,29.4,12.8,29.4,12.8l-0.1,0.1l0.1-0.1c5.8,7.2,5.9,23.7,5.9,25.6v0.2
			C78.3,65.4,66.1,73,66,73.1v-0.1l0.1,0.1c-7,5.4-17.1,6.4-23.8,6.4c-2.3,0-4.6-0.1-6.9-0.4v-0.1V79C12.8,76.7,8.7,58.8,8.7,58.8
			h0.1H8.7c-1.4-5.3-2.1-10.7-2.1-16.1c0-10,2.6-16,2.6-16l0.1,0H9.1C13.9,11.8,28.2,9,28.3,9.1L28.3,9.1L28.3,9.1L28.3,9.1z
			 M3.7,44H3.4v-1.7h0.2V44z M81.2,43.5l0.1-1.5h0.2l-0.1,1.5H81.2z M83.2,43.5l-1.8-1.3l-3.2-1.9l0.1-0.2l3.1,1.9l1.9,1.3
			L83.2,43.5z M6.8,42.4l-4,2.1l-0.1-0.1h0.1c0,0,0,0.2,0,0.4c0,2.3,0.5,13.4,9.8,24.3l0,0c0,0,0.1,0.2,0.4,0.5
			c6.6,7.3,15.5,12.1,25.2,13.4l0,0c0,0,0.3,0,0.9,0.1s1.4,0.1,2.5,0.1c5.7,0,17.8-1.5,29.5-12.7l0,0c0,0,0.2-0.1,0.4-0.4
			c1.8-1.8,9.1-10,10.8-26.2h0.1v0.1l-4.1-1.8l0.1-0.2l4.1,1.8v0.1c-1.9,18.6-11.3,26.8-11.3,26.8l-0.1-0.1l0.1,0.1
			C59.6,82.1,47.4,83.6,41.7,83.6c-1.1,0-2.3-0.1-3.4-0.2v-0.1v0.1c-10-1.4-19.1-6.4-25.8-14l0.1-0.1l-0.1,0.1
			c-9.3-11-9.8-22.2-9.8-24.5c0-0.3,0-0.5,0-0.5v-0.1l4-2.2L6.8,42.4z M6.8,40.4l-5,3.2l-0.1-0.2l5-3.2L6.8,40.4z M2.6,42.4
			L2.6,42.4c0-1.4,0.2-16.3,11.5-27l0.1,0.1l-0.1-0.1c6.6-7.5,16-11.8,26-11.8c1,0,1.9,0,2.9,0.1v0.1V3.7c0.7-0.1,1.3-0.1,2-0.1
			c4.4,0,15.6,1.3,27.7,13.4l0,0c0,0,9.6,10.8,9.6,23.9c0,0.5,0,1,0,1.6H82c0-0.5,0-1,0-1.6c0-6.5-2.4-12.4-4.8-16.7
			c-1-1.8-2.1-3.5-3.3-5.1c-0.4-0.6-0.8-1.1-1.1-1.4l-0.4-0.5l0.1-0.1l-0.1,0.1C60.5,5.1,49.3,3.8,45,3.8c-0.6,0-1.1,0-1.4,0.1
			l-0.5,0l0,0c-1-0.1-2-0.1-2.9-0.1c-6.8,0-13.5,2-19.1,5.7c-1.8,1.2-3.5,2.5-5,4c-0.6,0.6-1,1-1.3,1.3s-0.4,0.5-0.4,0.5l0,0
			C3.1,26.1,2.8,40.9,2.8,42.2v0.1L2.6,42.4z"/>
		<path class="st0" d="M56.7,19.2v0.1h0c-0.8,0.2-1.3,0.9-1.3,1.7l0,0v0.1c0,0.1,0,0.2,0,0.3c-0.1,0.8,0.3,1.5,0.9,2l-0.1,0.1l0-0.1
			l0.1,0c0.4,0.2,0.8,0.2,1.3,0.2c0.5,0,1-0.1,1.4-0.3l0.1,0.1L59,23.4l0,0c0.6-0.4,0.9-1.1,0.8-1.9v-0.1l0,0v-0.1
			c0-0.3-0.1-0.7-0.2-1c-0.2-0.5-0.6-0.9-1.2-1l0,0c-0.1,0-0.1,0-0.2,0c-0.2,0-0.4-0.1-0.6-0.1c-0.3,0-0.6,0-0.9,0.1l0,0L56.7,19.2
			L56.7,19.2c0.4-0.2,0.7-0.2,1-0.2c0.3,0,0.6,0,0.9,0.1v0.1v-0.1c0.6,0.1,1.1,0.6,1.3,1.1c0.2,0.4,0.2,0.7,0.2,1.1v0.2h-0.1h0.1
			v0.1c0.1,0.8-0.3,1.6-1,2.1l0,0c-0.5,0.2-1,0.4-1.5,0.4c-0.5,0-1-0.1-1.5-0.3l0,0c-0.7-0.5-1-1.3-1-2.2c0-0.2,0-0.3,0-0.5h0.1
			h-0.2c0-0.6,0.3-1.2,0.8-1.6C56.2,19.3,56.4,19.1,56.7,19.2L56.7,19.2L56.7,19.2L56.7,19.2z"/>
		<path class="st0" d="M53,26.9h22.9v0.2H53V26.9z M9.1,27h23v0.2h-23L9.1,27z"/>
		<path class="st0" d="M57.6,22.5c0.3,0,0.5-0.1,0.7-0.3c0.2-0.2,0.3-0.4,0.3-0.7l0,0c0-0.1,0-0.3-0.1-0.4V21
			c-0.1-0.1-0.1-0.2-0.2-0.3l0,0h-0.1v0v0.1l0.1,0.1l0.1,0.1c0.1,0.1,0.2,0.3,0.2,0.5l0,0c0,0.4-0.3,0.7-0.7,0.7
			c-0.2,0-0.4-0.1-0.5-0.2c-0.1-0.1-0.2-0.3-0.2-0.5l0,0c0-0.2,0.1-0.3,0.2-0.5l0.1-0.1l0.1-0.1v-0.1v0h-0.1l0,0
			C57,20.9,57,21,56.9,21v0.1c-0.1,0.1-0.1,0.3-0.1,0.4l0,0c0,0.5,0.5,1,1,1"/>
		<polyline class="st0" points="57.7,20.8 57.7,20.5 57.7,20.4 57.7,20.4 57.6,20.4 57.6,20.4 57.5,20.4 57.5,20.5 57.5,21.1 
			57.5,21.2 57.6,21.2 		"/>
		<polyline class="st0" points="57.6,21.2 57.6,21.2 57.7,21.2 57.7,21.1 57.7,20.8 		"/>
		<path class="st0" d="M44.5,28.4l-0.2-0.1l-0.2,0.1c-0.9,0.9-2.4,0.9-3.3,0l0,0l-0.2-0.1l-0.2,0.1l-0.1,0.2l0.1,0.1l0,0
			c1.1,1,2.8,1,3.9,0l0,0l0.1-0.1L44.5,28.4 M44.6,25.1l-0.1,0.2l-0.2,0.1l-0.2-0.1c-0.9-0.9-2.4-0.9-3.3,0l-0.2,0.1l-0.2-0.1
			l-0.1-0.2l0.1-0.2c0.5-0.5,1.3-0.8,2-0.8c0.7,0,1.5,0.3,2,0.8l0,0L44.6,25.1"/>
		<path class="st0" d="M43.4,27.3h-0.9c-0.2,0-0.5-0.1-0.5-0.4c0-0.2,0.1-0.5,0.4-0.5c0,0,0.1,0,0.1,0h0.9l0.3-0.5h-1.2
			c-0.5-0.1-0.9,0.3-1,0.8s0.3,0.9,0.8,1c0.1,0,0.1,0,0.2,0h1.2L43.4,27.3z"/>
		<path class="st0" d="M43.3,26.6h-0.7c-0.1,0-0.2,0.1-0.3,0.2c0,0.1,0.1,0.2,0.2,0.3c0,0,0.1,0,0.1,0h0.7c0.1,0,0.2-0.1,0.3-0.2
			C43.6,26.7,43.5,26.6,43.3,26.6C43.3,26.6,43.3,26.6,43.3,26.6"/>
		<path class="st0" d="M34,2.2h-0.2v-1V1L34,0.9c2.8-0.7,5.6-1,8.4-0.9c2.9,0,5.8,0.2,8.7,0.7h0.2l0.1,1h-0.2h0.2v0.1
			c0,0.1,0,0.2-0.1,0.3c-0.1,0.2-0.3,0.3-0.5,0.2h-0.2l0,0l-0.6-0.1c-2.4-0.4-4.7-0.6-7.1-0.6c-2.9,0-5.7,0.3-8.5,0.9V2.4l0.1,0.2
			c-0.1,0-0.2,0-0.2,0c-0.1,0-0.2,0-0.3-0.1c-0.1-0.1-0.2-0.2-0.2-0.4l0,0L34,2.2l0.2,0l0,0l0,0l0,0l0,0l0,0l0,0h0.1
			c2.8-0.6,5.7-1,8.6-1c2.6,0,5.2,0.3,7.8,0.8l-0.1,0.2V2h0.1v0l0,0l0,0l0,0l0,0l0,0V1.8l0,0l0-0.8H51v0.2c-2.8-0.5-5.7-0.7-8.6-0.8
			c-2.1,0-4.1,0.1-6.2,0.4C35.6,1,35,1.2,34.7,1.2l-0.4,0.1h-0.1L34,1.1h0.2v1L34,2.2l0.2-0.1L34,2.2z"/>
	</g>
</g>
</svg>
