<svg width="490" height="490" fill="none" xmlns="http://www.w3.org/2000/svg"><path d="M490 245c0 135.31-109.69 245-245 245S0 380.31 0 245c0-3.013.0543891-6.013.162239-9H5l5 3v-12l-8.84919-5.899C13.1643 97.0064 117.754 0 245 0c127.089 0 231.578 96.7672 243.804 220.641L480 227v12.5l5-4h4.819c.12 3.152.181 6.319.181 9.5Z" fill="#fff"/><path d="M411.749 119c-6.307-8.348-13.27-16.258-20.851-23.6492C351.81 57.243 299.364 35.941 244.774 36.0001c-54.59.0591-106.99 21.4746-145.9954 59.667C59.7735 133.86 37.2596 185.797 36.0512 240.374l2.0895.046c.918-41.46 14.2556-81.382 37.8593-114.798V126h116v-2H77.1576c.7253-1.006 1.46-2.006 2.204-3H192v-2H80.8779c5.8988-7.683 12.3626-14.985 19.3631-21.8395 38.615-37.8105 90.491-59.0119 144.535-59.0704 54.044-.0585 105.966 21.0305 144.663 58.7572 7.123 6.9447 13.694 14.3517 19.683 22.1527H299v2h111.638c.744.994 1.479 1.994 2.204 3H299v2h115.266c23.35 33.213 36.583 72.821 37.583 113.972l2.089-.051c-1.066-43.848-15.882-85.962-41.938-120.589V119h-.251Z" fill="#AAA"/><path fill-rule="evenodd" clip-rule="evenodd" d="M300 122.5c0 30.1-24.624 54.5-55 54.5s-55-24.4-55-54.5c0-30.0995 24.624-54.5 55-54.5s55 24.4005 55 54.5Zm-4 0c0 27.856-22.799 50.5-51 50.5s-51-22.644-51-50.5S216.799 72 245 72s51 22.644 51 50.5Z" fill="#666"/><path fill-rule="evenodd" clip-rule="evenodd" d="M1.12741 221.523C6.9567 160.97 35.1055 104.75 80.0964 63.8045 125.087 22.8589 183.702.115675 244.536.00044016 305.369-.114809 364.07 22.4061 409.216 63.1811c44.985 40.6299 73.305 96.4879 79.5 156.7719l.011.001c-.002.013-.004.025-.007.038.021.202.042.405.062.607l-.279.028c-.145.286-.312.483-.382.565l-.003.005c-.185.218-.402.426-.611.612-.425.377-.994.817-1.651 1.294-1.325.963-3.171 2.194-5.341 3.588-.17.109-.341.219-.515.33v12.215l.249-.174c1.54-1.073 2.823-1.981 3.736-2.644.39-.283.703-.515.936-.693l-.007-.183.254-.01c.048-.038.083-.067.106-.087l.008-.007-.01.01c-.01.009-.033.032-.063.066l-.015.017 4.616-.182c1.298 32.938-4.063 65.799-15.764 96.616-11.7 30.816-29.499 58.955-52.331 82.731-22.832 23.776-50.226 42.7-80.544 55.64-30.317 12.939-62.934 19.627-95.898 19.664-32.963.037-65.594-6.579-95.941-19.45-30.346-12.872-57.783-31.735-80.6677-55.46-22.8846-23.725-40.7463-51.824-52.5157-82.614-11.76935-30.791-17.20429-63.64-15.979377-96.58l3.830807.142V236c.18555 0 .35898.025.50489.057l.56091.021-.00581.158c.13048.053.26118.112.38589.171.35305.167.78483.397 1.26649.667.87404.489 1.99915 1.158 3.2876 1.949v-12.13l-.4815-.302c-2.17716-1.367-4.02092-2.536-5.35246-3.398-.66426-.431-1.21155-.792-1.61262-1.066-.19905-.136-.37589-.261-.51834-.366l-.01222-.009c-.04061-.03-.11781-.087-.20795-.163l-.6875-.066ZM464.644 236.475c3.564-2.147 7.127-4.312 10.356-6.313v12.528c-1.909 1.31-3.945 2.699-5.987 4.086-4.093 2.779-8.206 5.546-11.376 7.648-1.586 1.052-2.93 1.933-3.915 2.566-.474.304-.857.546-1.14.719l-.19-.011-.007.131c-.063.037-.107.062-.135.079-.03.017-.042.025-.042.025l.024-.009c.01-.004.023-.01.039-.016l.095.241c-3.217 52.86-26.453 102.516-64.989 138.858-38.646 36.444-89.759 56.743-142.878 56.743-53.12 0-104.232-20.3-142.878-56.745-38.6453-36.445-61.9029-86.281-65.0136-139.31l-.2108.013c-.0549-.17-.1194-.3-.1616-.378-.0859-.16-.1788-.29-.2489-.38-.1401-.181-.2992-.346-.4386-.482-.2858-.279-.6601-.598-1.0796-.936-.8488-.684-2.029-1.563-3.413-2.556-2.7761-1.991-6.4661-4.507-10.1873-6.974-1.9862-1.317-3.9866-2.622-5.8676-3.83v-12.157c3.2173 2.001 6.7542 4.19 10.2783 6.365 5.686 3.509 11.3427 6.985 15.5776 9.583 2.1175 1.299 3.8798 2.379 5.1126 3.134l1.0774.66c1.0989 51.017 21.909 99.675 58.1301 135.725 36.902 36.729 86.816 57.401 138.881 57.518 52.066.116 102.072-20.331 139.139-56.895 36.507-36.012 57.554-84.787 58.75-135.992.352-.224.817-.513 1.385-.861 1.325-.813 3.172-1.923 5.371-3.238 1.287-.77 2.693-1.609 4.183-2.498l.097-.058c3.574-2.133 7.624-4.55 11.662-6.983ZM6.22995 219.764l.11131.072c1.3071.847 3.13156 2.004 5.30424 3.368 4.343 2.727 10.0507 6.265 15.7336 9.772 5.6819 3.507 11.3354 6.98 15.5686 9.578 2.1165 1.298 3.8778 2.377 5.11 3.132l1.9049 1.166.9921-.007c.3546 51.024 20.8428 99.843 57.0073 135.837 36.165 35.995 85.08 56.253 136.104 56.367 51.025.115 100.03-19.924 136.356-55.756 36.325-35.832 57.032-84.559 57.615-135.58l.585.006-.071-.066c.19-.204.434-.374.522-.435l.012-.008c.144-.101.323-.22.524-.35.406-.262.96-.607 1.631-1.018 1.346-.826 3.21-1.946 5.409-3.261 1.321-.79 2.764-1.651 4.292-2.563 3.571-2.131 7.608-4.54 11.639-6.969 5.757-3.469 11.476-6.963 15.773-9.723 2.152-1.384 3.921-2.565 5.152-3.459.053-.038.104-.076.154-.113l.102-.075c-6.233-58.782-33.937-113.219-77.829-152.8616C361.689 26.858 304.162 4.78749 244.545 4.90042 184.928 5.01336 127.486 27.3017 83.3945 67.4284 39.856 107.052 12.4116 161.271 6.22995 219.764Zm2.09908 22.928c-1.35577-.837-2.51273-1.53-3.38991-2.026-.55505 30.74 4.79901 61.315 15.78648 90.06 11.534 30.175 29.0385 57.712 51.4654 80.963 22.427 23.25 49.315 41.736 79.055 54.35 29.739 12.614 61.718 19.097 94.022 19.061 32.304-.036 64.269-6.591 93.98-19.271 29.711-12.681 56.558-31.226 78.933-54.527 22.375-23.3 39.818-50.876 51.284-81.077 10.871-28.632 16.159-59.064 15.594-89.655-.734.522-1.584 1.119-2.522 1.773-3.095 2.159-7.176 4.958-11.277 7.742-4.101 2.785-8.227 5.56-11.412 7.673-1.284.851-2.419 1.597-3.34 2.194-3.637 53.361-27.268 103.418-66.216 140.147C350.858 437.287 298.702 458 244.498 458c-54.204 0-106.359-20.714-145.7927-57.903-39.1679-36.938-62.8452-87.356-66.2735-141.057-.1301-.112-.2876-.243-.4742-.394-.7611-.613-1.8697-1.441-3.2341-2.419-2.7209-1.952-6.3663-4.439-10.0659-6.891-3.6986-2.452-7.4329-4.857-10.32857-6.644Z" fill="#666"/><rect x="233" y="365" width="24" height="53" rx="12" stroke="#AAA" stroke-width="2"/></svg>