<?xml version="1.0" encoding="UTF-8" standalone="no"?>
<!-- Created with Inkscape (http://www.inkscape.org/) -->

<svg
   xmlns:dc="http://purl.org/dc/elements/1.1/"
   xmlns:cc="http://creativecommons.org/ns#"
   xmlns:rdf="http://www.w3.org/1999/02/22-rdf-syntax-ns#"
   xmlns:svg="http://www.w3.org/2000/svg"
   xmlns="http://www.w3.org/2000/svg"
   xmlns:sodipodi="http://sodipodi.sourceforge.net/DTD/sodipodi-0.dtd"
   xmlns:inkscape="http://www.inkscape.org/namespaces/inkscape"
   version="1.1"
   id="svg3893"
   width="490"
   height="490"
   viewBox="0 0 490 490"
   sodipodi:docname="vacuum.svg"
   enable-background="new"
   inkscape:label="traced_path"
   inkscape:version="0.92.1 r15371">
  <metadata
     id="metadata3899">
    <rdf:RDF>
      <cc:Work
         rdf:about="">
        <dc:format>image/svg+xml</dc:format>
        <dc:type
           rdf:resource="http://purl.org/dc/dcmitype/StillImage" />
        <dc:title></dc:title>
      </cc:Work>
    </rdf:RDF>
  </metadata>
  <defs
     id="defs3897" />
  <sodipodi:namedview
     pagecolor="#ffffff"
     bordercolor="#666666"
     borderopacity="1"
     objecttolerance="10"
     gridtolerance="10"
     guidetolerance="10"
     inkscape:pageopacity="0"
     inkscape:pageshadow="2"
     inkscape:window-width="1300"
     inkscape:window-height="699"
     id="namedview3895"
     showgrid="false"
     inkscape:zoom="1.3622629"
     inkscape:cx="187.54585"
     inkscape:cy="284.64888"
     inkscape:window-x="0"
     inkscape:window-y="16"
     inkscape:window-maximized="1"
     inkscape:current-layer="svg3893" />
  <path
     style="fill:#000000"
     d="M 214.5,487.46915 C 101.64635,472.73124 13.947067,383.29489 2.0286995,270.78941 -0.7278829,244.76818 0.81559245,234.35955 7.0801675,236.72416 L 10,237.82627 9.9620487,232.66314 C 9.926074,227.76891 9.7120536,227.35322 5.852859,224.68176 l -4.0712383,-2.81823 0.6932977,-6.68177 C 16.042975,84.417478 142.89668,-14.671011 274.69878,2.5411302 386.76578,17.176048 476.25762,106.58982 487.52508,215.18176 l 0.6933,6.68177 -4.07124,2.81823 c -3.85919,2.67146 -4.07321,3.08715 -4.10919,7.98138 l -0.038,5.16313 2.91983,-1.10211 c 6.26458,-2.36461 7.80805,8.04402 5.05147,34.06525 C 473.63059,406.161 348.86536,505.01634 214.5,487.46915 Z m 57,-4.57125 c 101.05818,-10.20918 187.96047,-89.24806 207.93178,-189.11692 3.97627,-19.88382 6.7824,-53.6601 4.32681,-52.08023 -27.92811,17.96834 -26.31245,16.38181 -27.11838,26.62955 C 448.47381,372.1706 352.70231,458 245,458 137.29769,458 41.526186,372.1706 33.359787,268.3303 32.553865,258.08256 34.169522,259.66909 6.2414092,241.70075 3.7858245,240.12088 6.5919494,273.89716 10.568221,293.78098 34.556991,413.73963 147.29025,495.44592 271.5,482.8979 Z M 283,449.6319 C 373.86582,432.27911 441.74003,359.12127 451.97792,267.5 c 0.55312,-4.95 1.00936,-9.56809 1.01388,-10.26242 0.005,-0.69433 2.5957,-2.90023 5.7582,-4.902 17.12463,-10.83938 16.25,-10.00873 16.25,-15.43282 0,-5.82313 0.24965,-5.76017 -6.29804,-1.5884 -2.86108,1.82289 -9.81446,5.92037 -15.45196,9.10549 l -10.25,5.79114 -0.0183,6.14451 c -0.12325,41.33633 -21.92799,91.55788 -54.47063,125.45889 -120.24674,125.266 -327.756616,49.8143 -342.024147,-124.36181 l -0.6592,-8.04742 -4.52636,-2.40123 C 38.811846,245.68326 32.053804,241.7671 26.283473,238.30135 13.760252,230.77973 15,230.93339 15,236.90276 c 0,5.42409 -0.874634,4.59344 16.25,15.43282 3.1625,2.00177 5.753692,4.20767 5.758205,4.902 0.07471,11.4958 5.117263,37.07851 10.498432,53.26242 C 73.566128,388.87413 140.66118,442.51368 225,452.39815 c 11.3697,1.33252 44.91501,-0.26739 58,-2.76625 z m -13.30122,-12.16822 c 91.16931,-11.8687 160.24933,-84.37614 168.43076,-176.78748 l 1.2194,-13.77346 6.45696,-3.61094 6.45697,-3.61094 -0.66567,-9.09043 c -2.53232,-34.58141 -14.53904,-70.72596 -32.66138,-98.32246 L 415.5,127.03593 357.8585,127.01797 300.217,127 l -1.61043,7.1312 c -12.9349,57.27752 -94.27824,57.27752 -107.21314,0 L 189.783,127 l -57.6415,0.018 -57.6415,0.018 -3.435821,5.23204 c -18.122335,27.5965 -30.129057,63.74105 -32.661375,98.32246 l -0.665672,9.09043 6.631434,3.70851 L 51,247.09795 v 5.39984 C 51,361.7158 157.78811,452.03256 269.69878,437.46368 Z M 240.5,418.46985 c -8.22821,-2.86902 -9.83424,-7.93491 -9.34982,-29.49213 0.28726,-12.78329 0.66526,-16.04847 2.11375,-18.25852 5.47417,-8.35232 17.18011,-8.55282 23.16499,-0.39678 2.92544,3.98673 3.16348,37.17873 0.30415,42.41065 -3.00383,5.49633 -9.91647,7.93926 -16.23307,5.73678 z m 9.53273,-2.98678 c 8.45296,-4.37119 9.04064,-41.11571 0.75048,-46.92237 -4.93686,-3.45791 -12.30911,-1.31197 -15.28892,4.45034 -2.16034,4.17763 -2.14608,33.82787 0.0183,38.01327 2.78703,5.38952 9.0194,7.30332 14.52016,4.45876 z M 37.605524,213.54723 C 48.198461,139.0181 102.21122,73.088191 173.5,47.669559 305.10338,0.74523789 442.46186,89.965347 454.4993,230.19042 l 0.66017,7.69041 6.67027,-4.0807 c 3.66864,-2.24439 9.979,-6.31249 14.02301,-9.04023 l 7.35276,-4.95952 -0.66755,-5.65019 C 470.47269,112.02869 388.12404,26.357125 285.31043,8.9641987 151.66996,-13.643692 23.168547,81.273328 7.4557762,214.20035 l -0.6738151,5.70034 11.8590199,7.69628 c 6.52246,4.23295 12.759019,8.25321 13.859019,8.93392 1.900889,1.17631 2.038375,0.90888 2.774395,-5.39662 0.425917,-3.64885 1.474925,-11.56302 2.331129,-17.58704 z M 255.26981,171.53072 c 38.86261,-8.23516 53.06161,-55.92172 25.09211,-84.270499 -31.21831,-31.641652 -85.42505,-9.28583 -85.35005,35.199879 0.0538,31.9173 29.19965,55.65201 60.25794,49.07062 z M 190,123 c 0,-1.37804 -111.648326,-1.37804 -112.5,0 -0.40924,0.66216 18.489616,1 55.94098,1 C 170.48033,124 190,123.65488 190,123 Z m 222.5,0 c -0.40011,-0.64738 -20.34372,-1 -56.55902,-1 C 319.31366,122 300,122.34525 300,123 c 0,0.65488 19.51967,1 56.55902,1 37.45136,0 56.35022,-0.33784 55.94098,-1 z m -221.93102,-8.75 c 8.69308,-59.711415 95.37293,-62.255162 108.06939,-3.17145 L 300.3406,119 h 54.36489 c 51.4807,0 54.31317,-0.0928 53.39024,-1.75 -1.42576,-2.56 -15.64062,-17.881754 -22.59573,-24.355232 -78.50631,-73.069827 -202.49369,-73.069827 -281,0 C 97.544888,99.368246 83.330032,114.69 81.904272,117.25 80.981329,118.90718 83.819004,119 135.40354,119 h 54.47391 z"
     id="path3915"
     inkscape:connector-curvature="0" />
</svg>
